<svg xmlns="http://www.w3.org/2000/svg" viewBox="0 0 244.53 117.9"><defs><style>.cls-1{fill:#242424;}</style></defs><g id="Layer_2" data-name="Layer 2"><g id="Layer_4" data-name="Layer 4"><polygon class="cls-1" points="64.49 54.82 40.04 54.82 40.04 40.13 64.49 40.13 64.49 31.73 31.63 31.73 31.63 86.32 40.04 86.32 40.04 63.23 64.49 63.23 64.49 54.82"/><rect class="cls-1" x="64.49" y="77.92" width="24.33" height="8.41"/><path class="cls-1" d="M0,0V117.9H117.86V0H0ZM8.41,8.41H109.46V109.49H8.41Z"/><polygon class="cls-1" points="148.4 43.92 158.88 43.92 158.88 39.41 148.4 39.41 148.4 33.05 158.89 33.05 158.89 28.52 143.48 28.52 143.48 54.13 148.4 54.13 148.4 43.92"/><path class="cls-1" d="M177,51.83a10,10,0,0,0,2.45-7l0-1.3a9.44,9.44,0,0,0-2.71-6.4,8.68,8.68,0,0,0-6.29-2.36A9.16,9.16,0,0,0,165.67,36a8,8,0,0,0-3.14,3.43,11.21,11.21,0,0,0-1.09,5v.23a10.15,10.15,0,0,0,2.45,7.18,9.47,9.47,0,0,0,13.13,0Zm-9.48-2.89a7.09,7.09,0,0,1-1-4.14,7.93,7.93,0,0,1,1-4.51,3.34,3.34,0,0,1,2.89-1.45,3.39,3.39,0,0,1,2.92,1.46,7.08,7.08,0,0,1,1,4.13,7.78,7.78,0,0,1-1,4.53,3.67,3.67,0,0,1-5.81,0Z"/><path class="cls-1" d="M192.86,34.74c-1.84,0-4.63,1.1-5.65,2.85l-.14-2.5h-4.8v19h5.08V42.45c.6-1.3,2.6-2.93,6.91-2.93l0-4.78Z"/><path class="cls-1" d="M225.21,51.05l-2.49-2.8a5.5,5.5,0,0,1-4.59,2.13A4.44,4.44,0,0,1,215,49.25a4.67,4.67,0,0,1-1.49-3h12.12V44.19q0-4.52-2.24-7a7.89,7.89,0,0,0-6.15-2.47A8.79,8.79,0,0,0,212.59,36a8.11,8.11,0,0,0-3.14,3.48,11.61,11.61,0,0,0-1.1,5.13v.49A9.12,9.12,0,0,0,211,51.91a9.37,9.37,0,0,0,6.82,2.57,10.09,10.09,0,0,0,4.33-.91A7.56,7.56,0,0,0,225.21,51.05ZM214.76,39.87a3.14,3.14,0,0,1,2.45-1,3.28,3.28,0,0,1,2.5.93,3.79,3.79,0,0,1,.91,2.62v.41h-7.07A5.31,5.31,0,0,1,214.76,39.87Z"/><path class="cls-1" d="M157.4,65.15a11.91,11.91,0,0,0-6-1.52h-7.88V89.24h7.93a12.13,12.13,0,0,0,6-1.55,10.49,10.49,0,0,0,4.14-4.31A13.37,13.37,0,0,0,163.05,77V75.85a13.44,13.44,0,0,0-1.49-6.38A10.57,10.57,0,0,0,157.4,65.15Zm.31,12A9.14,9.14,0,0,1,156,83a5.75,5.75,0,0,1-4.74,2h-2.55V67.9h2.61a5.72,5.72,0,0,1,4.73,2,9.3,9.3,0,0,1,1.62,5.92Z"/><rect class="cls-1" x="167.28" y="70.2" width="5.1" height="19.03"/><path class="cls-1" d="M169.83,62.93a2.55,2.55,0,0,0-1.87.67A2.41,2.41,0,0,0,168,67a2.57,2.57,0,0,0,1.85.66,2.6,2.6,0,0,0,1.85-.66,2.26,2.26,0,0,0,.7-1.7,2.2,2.2,0,0,0-.7-1.68A2.53,2.53,0,0,0,169.83,62.93Z"/><path class="cls-1" d="M202.13,30.42h-5.08V49.08q.1,5.4,5.45,5.4a10.31,10.31,0,0,0,3.08-.46V50.17a8.25,8.25,0,0,1-1.49.12,2,2,0,0,1-1.55-.45,2.28,2.28,0,0,1-.41-1.52V39.05h4.67v-4h-4.67Z"/><path class="cls-1" d="M212.14,65.53h-5.09V84.19q.1,5.4,5.46,5.4a10.24,10.24,0,0,0,3.07-.46V85.28a8.25,8.25,0,0,1-1.49.12,2,2,0,0,1-1.55-.46,2.24,2.24,0,0,1-.4-1.51V74.16h4.67v-4h-4.67Z"/><path class="cls-1" d="M235.17,76.59a6.21,6.21,0,0,0-2.06-5,8.31,8.31,0,0,0-5.59-1.77,10.61,10.61,0,0,0-4.19.8,6.79,6.79,0,0,0-2.88,2.21,5.11,5.11,0,0,0-1,3.06h5.08a2.12,2.12,0,0,1,.73-1.69,3,3,0,0,1,2-.61,2.64,2.64,0,0,1,2.13.79,3.1,3.1,0,0,1,.68,2.11v1.09h-2.34a11.06,11.06,0,0,0-6.48,1.64A5.37,5.37,0,0,0,219,83.89,5.19,5.19,0,0,0,220.85,88a6.74,6.74,0,0,0,4.63,1.62,6.15,6.15,0,0,0,4.8-2.06,6,6,0,0,0,.51,1.71h5.14v-.3a9.11,9.11,0,0,1-.76-4.1Zm-5.1,7.26a3.18,3.18,0,0,1-1.41,1.35,4.4,4.4,0,0,1-2.07.5,2.55,2.55,0,0,1-1.83-.62,2,2,0,0,1-.67-1.56l0-.3c.16-1.76,1.52-2.64,4.06-2.64h1.9Z"/><rect class="cls-1" x="239.43" y="62.22" width="5.1" height="27.02"/><path class="cls-1" d="M200.17,62.93a2.55,2.55,0,0,0-1.87.67,2.39,2.39,0,0,0,0,3.38,2.57,2.57,0,0,0,1.85.66A2.6,2.6,0,0,0,202,67a2.26,2.26,0,0,0,.7-1.7,2.2,2.2,0,0,0-.7-1.68A2.53,2.53,0,0,0,200.17,62.93Z"/><rect class="cls-1" x="197.61" y="70.2" width="5.1" height="19.03"/><path class="cls-1" d="M188.41,72a5.83,5.83,0,0,0-4.81-2.15,6.62,6.62,0,0,0-5.55,2.68A11.22,11.22,0,0,0,176,79.59v.21a11.29,11.29,0,0,0,2.09,7.12,6.62,6.62,0,0,0,5.48,2.68,5.76,5.76,0,0,0,4.57-2v1A4.1,4.1,0,0,1,187,91.71a4.28,4.28,0,0,1-3.11,1.08,5.85,5.85,0,0,1-4.55-2.13l-2.22,3.1a7.06,7.06,0,0,0,3,2.15,10.11,10.11,0,0,0,4,.84,10.86,10.86,0,0,0,4.75-1A7.2,7.2,0,0,0,192.05,93a8.33,8.33,0,0,0,1.12-4.35V70.2h-4.55Zm-.28,11.76a3.47,3.47,0,0,1-3.28,1.74A3.26,3.26,0,0,1,182,84,7,7,0,0,1,181,80a7.91,7.91,0,0,1,1-4.48,3.27,3.27,0,0,1,2.84-1.5,3.46,3.46,0,0,1,3.25,1.74Z"/></g></g></svg>